<svg width="428" height="370" viewBox="0 0 428 370" fill="none" xmlns="http://www.w3.org/2000/svg">
<path d="M295.349 309.446L260.815 369.653H36.3422L35.8878 369.199L1.58069 309.446L0.671875 307.855L7.03347 296.722L35.8878 246.511L178.342 0H249.001L213.785 61.3438L106.774 246.511L77.9197 296.722L70.4221 309.446H295.349Z" fill="#96FD65"/>
<path d="M427.341 307.858L426.432 309.448L391.671 369.656H277.162L311.696 309.448H356.909L349.639 296.725L334.416 270.37L326.237 256.284L302.836 296.725H95.6299L124.484 246.514L222.634 76.7962L258.305 14.7708L290.34 70.4346L254.669 132.233L188.782 246.514H256.26L288.295 190.623L324.192 128.825L361.908 194.485L370.087 208.572L391.898 246.514L420.979 296.725L427.341 307.858Z" fill="#96FD65"/>
<path d="M325.798 285.125L318.755 297.167H332.841L325.798 285.125Z" fill="#96FD65"/>
</svg>
